# xmcd CD database file
# Copyright (C) 1993-1996 Ti Kan
#
# Track frame offsets:
# 150
# 12460
# 26405
# 39835
# 52822
# 63370
# 73585
# 84002
# 97655
# 107847
#
# Disc length: 1604 seconds
#
# Revision: 0
# Processed by: cddbd v1.4b41PL1 Copyright (c) Steve Scherf et al.
# Submitted via: inCDius 1.1b5
#
DISCID=6806420a
DTITLE=David Houston - David Houston -American Originals
DYEAR=1900
DGENRE=
TTITLE0=Already It's Heaven
TTITLE1=Where Love Used To Live
TTITLE2=Almost Persuaded
TTITLE3=My Elusive Dreams
TTITLE4=I Do My Swinging At Home
TTITLE5=Have A Little Faith
TTITLE6=Baby, Baby (I Know You're A Lady)
TTITLE7=My Woman's Good To Me
TTITLE8=With One Exception
TTITLE9=Mountain Of Love
EXTD=
EXTT0=
EXTT1=
EXTT2=
EXTT3=
EXTT4=
EXTT5=
EXTT6=
EXTT7=
EXTT8=
EXTT9=
PLAYORDER=
